<svg xmlns="http://www.w3.org/2000/svg" viewBox="0 0 500 300">
  <!-- Background -->
  <rect width="500" height="300" fill="#1A1A1A"/>
  
  <!-- Grid -->
  <g stroke="#333333" stroke-width="1" stroke-dasharray="2 2">
    <!-- Vertical lines -->
    <line x1="50" y1="40" x2="50" y2="250"/>
    <line x1="100" y1="40" x2="100" y2="250"/>
    <line x1="150" y1="40" x2="150" y2="250"/>
    <line x1="200" y1="40" x2="200" y2="250"/>
    <line x1="250" y1="40" x2="250" y2="250"/>
    <line x1="300" y1="40" x2="300" y2="250"/>
    <line x1="350" y1="40" x2="350" y2="250"/>
    <line x1="400" y1="40" x2="400" y2="250"/>
    <line x1="450" y1="40" x2="450" y2="250"/>
    <!-- Horizontal lines -->
    <line x1="50" y1="50" x2="450" y2="50"/>
    <line x1="50" y1="100" x2="450" y2="100"/>
    <line x1="50" y1="150" x2="450" y2="150"/>
    <line x1="50" y1="200" x2="450" y2="200"/>
    <line x1="50" y1="250" x2="450" y2="250"/>
  </g>

  <!-- Title -->
  <text x="250" y="30" 
        font-family="system-ui, -apple-system, sans-serif"
        font-size="16"
        fill="#FFFFFF"
        text-anchor="middle">Left Half Target Determination</text>

  <!-- Bars and Labels (Left Half Only, Muted) -->
  <g opacity="0.2">
    

    <!-- Bar 2: value 18 -->
    <rect x="93" y="160" width="10" height="90" fill="#64FFDA"/>
    <text x="98" y="270" font-size="12" fill="#FFFFFF" text-anchor="middle">?</text>

    

    <!-- Bar 4: value 22 -->
    <rect x="159" y="140" width="10" height="110" fill="#64FFDA"/>
    <text x="164" y="270" font-size="12" fill="#FFFFFF" text-anchor="middle">?</text>

    <!-- Bar 5: value 25 -->
    <rect x="192" y="125" width="10" height="125" fill="#64FFDA"/>
    <text x="197" y="270" font-size="12" fill="#FFFFFF" text-anchor="middle">?</text>
    
  </g>

  <!-- Bar 1: value 15 -->
    <rect x="60" y="175" width="10" height="75" fill="#64FFDA" fill-opacity="1.0"/>
    <text x="65" y="270" font-size="12" fill="#FFFFFF" fill-opacity="1.0" text-anchor="middle">15</text>

    <!-- Bar 3: value 20 -->
    <rect x="126" y="150" width="10" height="100" fill="#64FFDA"/>
    <text x="131" y="270" font-size="12" fill="#FFFFFF" text-anchor="middle">20</text>

     <!-- Bar 6: value 28 -->
    <rect x="225" y="125" width="10" height="125" fill="#64FFDA"/>
    <text x="230" y="270" font-size="12" fill="#FFFFFF" text-anchor="middle">?</text>

  <!-- Highlighted Bars -->
  <g>
    <!-- Left boundary (1) -->
    <rect x="60" y="175" width="10" height="75" fill="#64FFDA" fill-opacity="0.9"/>
    
    <!-- Target (2) -->
    <rect x="126" y="150" width="10" height="100" fill="#FFD700" fill-opacity="0.9"/>
    
    <!-- Maximum (3) -->
    <rect x="225" y="110" width="10" height="140" fill="#64FFDA" fill-opacity="0.9"/>
  </g>

  <!-- Order Annotations -->
  <g>
    <!-- Guide Lines -->
    <line x1="65" y1="80" x2="65" y2="175" stroke="#64FFDA" stroke-width="1" stroke-dasharray="4 2" stroke-opacity="0.4"/>
    <line x1="131" y1="80" x2="131" y2="150" stroke="#FFD700" stroke-width="1" stroke-dasharray="4 2" stroke-opacity="0.4"/>
    <line x1="230" y1="80" x2="230" y2="110" stroke="#64FFDA" stroke-width="1" stroke-dasharray="4 2" stroke-opacity="0.4"/>

    <!-- Order Circles -->
    <g>
      <!-- Circle 4 -->
      <circle cx="65" cy="80" r="8" fill="#1A1A1A" stroke="#64FFDA" stroke-width="1"/>
      <text x="65" y="83" font-size="10" fill="#FFFFFF" text-anchor="middle">4</text>
      
      <!-- Circle 5 -->
      <circle cx="131" cy="80" r="8" fill="#1A1A1A" stroke="#FFD700" stroke-width="1"/>
      <text x="131" y="83" font-size="10" fill="#FFFFFF" text-anchor="middle">5</text>
      
      <!-- Circle 6 -->
      <circle cx="230" cy="80" r="8" fill="#1A1A1A" stroke="#64FFDA" stroke-width="1"/>
      <text x="230" y="83" font-size="10" fill="#FFFFFF" text-anchor="middle">6</text>
    </g>
  </g>

  <!-- Comparison Annotation -->
  <text x="270" y="140" font-size="14" fill="#FFFFFF" text-anchor="right">Boundary (4) before Target (5)</text>
  <text x="270" y="160" font-size="14" fill="#FFFFFF" text-anchor="right">15 &lt; 20</text>
  <text x="270" y="180" font-size="14" fill="#FFFFFF" text-anchor="right">Target must be in left half</text>
</svg>